<svg width="150" height="150" viewBox="0 0 150 150" fill="none" xmlns="http://www.w3.org/2000/svg">
<circle cx="74.5" cy="75.5" r="25.5" fill="white"/>
<path d="M74.3299 63.6661C74.6393 63.6661 74.9359 63.789 75.1547 64.0077C75.3734 64.2265 75.4963 64.5232 75.4963 64.8325V65.9989C75.4963 66.3082 75.3734 66.6049 75.1547 66.8236C74.9359 67.0424 74.6393 67.1653 74.3299 67.1653C74.0206 67.1653 73.7239 67.0424 73.5051 66.8236C73.2864 66.6049 73.1635 66.3082 73.1635 65.9989V64.8325C73.1635 64.5232 73.2864 64.2265 73.5051 64.0077C73.7239 63.789 74.0206 63.6661 74.3299 63.6661ZM65.3405 66.3406C65.5593 66.122 65.8559 65.9991 66.1652 65.9991C66.4745 65.9991 66.7711 66.122 66.9898 66.3406L68.1562 67.507C68.3687 67.727 68.4862 68.0216 68.4836 68.3275C68.4809 68.6333 68.3583 68.9258 68.142 69.1421C67.9257 69.3583 67.6332 69.481 67.3274 69.4837C67.0216 69.4863 66.7269 69.3688 66.5069 69.1563L65.3405 67.9899C65.1219 67.7712 64.999 67.4746 64.999 67.1653C64.999 66.856 65.1219 66.5594 65.3405 66.3406ZM81.67 66.3406C81.7776 66.2292 81.9063 66.1404 82.0486 66.0792C82.1909 66.0181 82.344 65.9859 82.4988 65.9846C82.6537 65.9833 82.8073 66.0128 82.9506 66.0714C83.094 66.1301 83.2242 66.2167 83.3337 66.3262C83.4432 66.4357 83.5298 66.5659 83.5885 66.7093C83.6471 66.8526 83.6767 67.0062 83.6753 67.1611C83.674 67.3159 83.6418 67.469 83.5807 67.6113C83.5195 67.7536 83.4307 67.8823 83.3193 67.9899L82.1529 69.1563C82.0453 69.2677 81.9166 69.3566 81.7743 69.4177C81.632 69.4788 81.4789 69.511 81.324 69.5123C81.1692 69.5137 81.0156 69.4842 80.8722 69.4255C80.7289 69.3669 80.5987 69.2803 80.4891 69.1708C80.3796 69.0612 80.293 68.931 80.2344 68.7877C80.1757 68.6443 80.1462 68.4907 80.1476 68.3359C80.1489 68.181 80.1811 68.0279 80.2422 67.8856C80.3033 67.7433 80.3922 67.6146 80.5036 67.507L81.67 66.3406ZM74.3299 71.8308C73.4019 71.8308 72.5118 72.1995 71.8556 72.8557C71.1994 73.5119 70.8307 74.402 70.8307 75.33C70.8307 76.258 71.1994 77.1481 71.8556 77.8043C72.5118 78.4605 73.4019 78.8292 74.3299 78.8292C75.2579 78.8292 76.148 78.4605 76.8042 77.8043C77.4604 77.1481 77.8291 76.258 77.8291 75.33C77.8291 74.402 77.4604 73.5119 76.8042 72.8557C76.148 72.1995 75.2579 71.8308 74.3299 71.8308ZM68.498 75.33C68.498 73.7833 69.1124 72.2999 70.2061 71.2062C71.2998 70.1125 72.7832 69.4981 74.3299 69.4981C75.8766 69.4981 77.36 70.1125 78.4537 71.2062C79.5474 72.2999 80.1618 73.7833 80.1618 75.33C80.1618 76.8767 79.5474 78.3601 78.4537 79.4538C77.36 80.5475 75.8766 81.1619 74.3299 81.1619C72.7832 81.1619 71.2998 80.5475 70.2061 79.4538C69.1124 78.3601 68.498 76.8767 68.498 75.33ZM62.666 75.33C62.666 75.0207 62.7889 74.724 63.0076 74.5052C63.2264 74.2865 63.5231 74.1636 63.8324 74.1636H64.9988C65.3081 74.1636 65.6048 74.2865 65.8236 74.5052C66.0423 74.724 66.1652 75.0207 66.1652 75.33C66.1652 75.6393 66.0423 75.936 65.8236 76.1548C65.6048 76.3735 65.3081 76.4964 64.9988 76.4964H63.8324C63.5231 76.4964 63.2264 76.3735 63.0076 76.1548C62.7889 75.936 62.666 75.6393 62.666 75.33ZM82.4946 75.33C82.4946 75.0207 82.6175 74.724 82.8363 74.5052C83.055 74.2865 83.3517 74.1636 83.661 74.1636H84.8274C85.1368 74.1636 85.4334 74.2865 85.6522 74.5052C85.8709 74.724 85.9938 75.0207 85.9938 75.33C85.9938 75.6393 85.8709 75.936 85.6522 76.1548C85.4334 76.3735 85.1368 76.4964 84.8274 76.4964H83.661C83.3517 76.4964 83.055 76.3735 82.8363 76.1548C82.6175 75.936 82.4946 75.6393 82.4946 75.33ZM68.1562 81.5037C68.3749 81.7224 68.4977 82.019 68.4977 82.3283C68.4977 82.6376 68.3749 82.9342 68.1562 83.153L66.9898 84.3194C66.7698 84.5318 66.4752 84.6494 66.1694 84.6467C65.8636 84.6441 65.571 84.5214 65.3548 84.3051C65.1385 84.0889 65.0158 83.7963 65.0132 83.4905C65.0105 83.1847 65.1281 82.8901 65.3405 82.6701L66.5069 81.5037C66.7257 81.285 67.0223 81.1622 67.3316 81.1622C67.6409 81.1622 67.9375 81.285 68.1562 81.5037ZM80.5036 81.5037C80.7223 81.285 81.019 81.1622 81.3282 81.1622C81.6375 81.1622 81.9341 81.285 82.1529 81.5037L83.3193 82.6701C83.5317 82.8901 83.6493 83.1847 83.6466 83.4905C83.644 83.7963 83.5213 84.0889 83.3051 84.3051C83.0888 84.5214 82.7963 84.6441 82.4904 84.6467C82.1846 84.6494 81.89 84.5318 81.67 84.3194L80.5036 83.153C80.2849 82.9342 80.1621 82.6376 80.1621 82.3283C80.1621 82.019 80.2849 81.7224 80.5036 81.5037ZM74.3299 83.4947C74.6393 83.4947 74.9359 83.6176 75.1547 83.8363C75.3734 84.0551 75.4963 84.3518 75.4963 84.6611V85.8275C75.4963 86.1368 75.3734 86.4335 75.1547 86.6523C74.9359 86.871 74.6393 86.9939 74.3299 86.9939C74.0206 86.9939 73.7239 86.871 73.5051 86.6523C73.2864 86.4335 73.1635 86.1368 73.1635 85.8275V84.6611C73.1635 84.3518 73.2864 84.0551 73.5051 83.8363C73.7239 83.6176 74.0206 83.4947 74.3299 83.4947Z" fill="black"/>
</svg>
