<svg width="150" height="150" viewBox="0 0 150 150" fill="none" xmlns="http://www.w3.org/2000/svg">
<circle cx="74.5" cy="75.5" r="25.5" fill="#050505"/>
<mask id="path-2-inside-1" fill="white">
<path d="M72.819 66.7371C72.4179 68.4497 72.3633 70.2252 72.6585 71.9591C72.9538 73.6931 73.5928 75.3505 74.538 76.8338C75.4833 78.3172 76.7157 79.5965 78.1627 80.5965C79.6096 81.5965 81.242 82.297 82.9637 82.6568C82.0585 83.5934 80.9744 84.3386 79.7757 84.8482C78.577 85.3577 77.2881 85.6212 75.9856 85.6231C75.8649 85.6231 75.7424 85.6275 75.6199 85.6231C73.3522 85.5432 71.1841 84.6714 69.4924 83.1593C67.8007 81.6471 66.6921 79.59 66.3593 77.3455C66.0266 75.1009 66.4906 72.8107 67.6708 70.8728C68.8511 68.9348 70.6729 67.4715 72.8199 66.7371H72.819ZM74.1122 64.6248C74.0609 64.625 74.0096 64.6297 73.9591 64.6388C71.1736 65.1346 68.67 66.6432 66.9303 68.8743C65.1906 71.1054 64.3377 73.9013 64.536 76.7235C64.7342 79.5458 65.9696 82.195 68.0041 84.161C70.0386 86.127 72.7286 87.2708 75.556 87.3722C75.6995 87.3775 75.843 87.3722 75.9847 87.3722C77.8213 87.3734 79.6312 86.9323 81.2612 86.0863C82.8913 85.2403 84.2937 84.0141 85.3499 82.5116C85.4354 82.3821 85.4854 82.2323 85.4947 82.0774C85.504 81.9225 85.4723 81.7678 85.4029 81.629C85.3334 81.4902 85.2286 81.3721 85.099 81.2867C84.9695 81.2012 84.8197 81.1514 84.6647 81.1422C82.9167 80.9888 81.2274 80.4355 79.7273 79.5251C78.2272 78.6147 76.9565 77.3715 76.0135 75.8917C75.0705 74.4119 74.4804 72.735 74.2888 70.9908C74.0972 69.2465 74.3092 67.4816 74.9085 65.8323C74.9595 65.7003 74.9782 65.5581 74.963 65.4174C74.9479 65.2767 74.8993 65.1416 74.8214 65.0235C74.7435 64.9053 74.6385 64.8075 74.5152 64.7382C74.3918 64.6688 74.2536 64.63 74.1122 64.6248Z"/>
</mask>
<path d="M72.819 66.7371C72.4179 68.4497 72.3633 70.2252 72.6585 71.9591C72.9538 73.6931 73.5928 75.3505 74.538 76.8338C75.4833 78.3172 76.7157 79.5965 78.1627 80.5965C79.6096 81.5965 81.242 82.297 82.9637 82.6568C82.0585 83.5934 80.9744 84.3386 79.7757 84.8482C78.577 85.3577 77.2881 85.6212 75.9856 85.6231C75.8649 85.6231 75.7424 85.6275 75.6199 85.6231C73.3522 85.5432 71.1841 84.6714 69.4924 83.1593C67.8007 81.6471 66.6921 79.59 66.3593 77.3455C66.0266 75.1009 66.4906 72.8107 67.6708 70.8728C68.8511 68.9348 70.6729 67.4715 72.8199 66.7371H72.819ZM74.1122 64.6248C74.0609 64.625 74.0096 64.6297 73.9591 64.6388C71.1736 65.1346 68.67 66.6432 66.9303 68.8743C65.1906 71.1054 64.3377 73.9013 64.536 76.7235C64.7342 79.5458 65.9696 82.195 68.0041 84.161C70.0386 86.127 72.7286 87.2708 75.556 87.3722C75.6995 87.3775 75.843 87.3722 75.9847 87.3722C77.8213 87.3734 79.6312 86.9323 81.2612 86.0863C82.8913 85.2403 84.2937 84.0141 85.3499 82.5116C85.4354 82.3821 85.4854 82.2323 85.4947 82.0774C85.504 81.9225 85.4723 81.7678 85.4029 81.629C85.3334 81.4902 85.2286 81.3721 85.099 81.2867C84.9695 81.2012 84.8197 81.1514 84.6647 81.1422C82.9167 80.9888 81.2274 80.4355 79.7273 79.5251C78.2272 78.6147 76.9565 77.3715 76.0135 75.8917C75.0705 74.4119 74.4804 72.735 74.2888 70.9908C74.0972 69.2465 74.3092 67.4816 74.9085 65.8323C74.9595 65.7003 74.9782 65.5581 74.963 65.4174C74.9479 65.2767 74.8993 65.1416 74.8214 65.0235C74.7435 64.9053 74.6385 64.8075 74.5152 64.7382C74.3918 64.6688 74.2536 64.63 74.1122 64.6248Z" fill="white"/>
<path d="M72.819 66.7371V20.6194H36.2548L27.9165 56.2202L72.819 66.7371ZM82.9637 82.6568L116.125 114.706L174.206 54.6108L92.3977 37.5144L82.9637 82.6568ZM75.9856 85.6231V131.741H76.0186L76.0515 131.741L75.9856 85.6231ZM75.6199 85.6231L77.2659 39.5348L77.2547 39.5344L77.2436 39.534L75.6199 85.6231ZM72.8199 66.7371L87.7459 110.373L72.8199 20.6194V66.7371ZM73.9591 64.6388L82.0394 110.043L82.1043 110.032L82.1691 110.02L73.9591 64.6388ZM75.556 87.3722L77.2421 41.2854L77.2258 41.2848L77.2095 41.2842L75.556 87.3722ZM75.9847 87.3722L76.0148 41.2546L75.9998 41.2546H75.9847V87.3722ZM85.3499 82.5116L123.08 109.031L123.462 108.488L123.828 107.934L85.3499 82.5116ZM84.6647 81.1422L80.6328 127.083L81.2855 127.141L81.9396 127.179L84.6647 81.1422ZM74.9085 65.8323L31.8876 49.2178L31.7213 49.6484L31.5637 50.0822L74.9085 65.8323ZM27.9165 56.2202C26.113 63.9203 25.8677 71.9034 27.1951 79.6997L118.122 64.2185C118.859 68.5469 118.723 72.979 117.721 77.254L27.9165 56.2202ZM27.1951 79.6997C28.5225 87.496 31.3958 94.9482 35.6459 101.618L113.43 52.0501C115.79 55.7529 117.385 59.8902 118.122 64.2185L27.1951 79.6997ZM35.6459 101.618C39.8959 108.287 45.437 114.039 51.943 118.535L104.382 42.6575C107.994 45.1538 111.071 48.3473 113.43 52.0501L35.6459 101.618ZM51.943 118.535C58.4489 123.032 65.7885 126.181 73.5298 127.799L92.3977 37.5144C96.6955 38.4126 100.77 40.1613 104.382 42.6575L51.943 118.535ZM49.8025 50.6073C53.1904 47.102 57.248 44.313 61.7344 42.4059L97.817 127.29C104.701 124.364 110.927 120.085 116.125 114.706L49.8025 50.6073ZM61.7344 42.4059C66.2209 40.4988 71.0448 39.5125 75.9197 39.5055L76.0515 131.741C83.5315 131.73 90.9331 130.217 97.817 127.29L61.7344 42.4059ZM75.9856 39.5054C75.6933 39.5054 75.4582 39.5081 75.3759 39.509C75.3471 39.5093 75.2828 39.5101 75.3057 39.5098C75.3062 39.5098 75.3152 39.5097 75.3286 39.5095C75.3424 39.5094 75.3636 39.5092 75.3902 39.5089C75.487 39.5081 75.719 39.5063 76.0208 39.5083C76.3275 39.5104 76.7544 39.5166 77.2659 39.5348L73.9738 131.711C75.0698 131.751 75.9403 131.743 76.2166 131.741C76.3099 131.74 76.5268 131.737 76.4136 131.738C76.3921 131.739 76.2175 131.741 75.9856 131.741V39.5054ZM77.2436 39.534C85.7492 39.8337 93.8812 43.1035 100.227 48.7755L38.7581 117.543C48.4871 126.239 60.9552 131.253 73.9961 131.712L77.2436 39.534ZM100.227 48.7755C106.572 54.4475 110.73 62.1632 111.978 70.5821L20.7403 84.1089C22.654 97.0169 29.0292 108.847 38.7581 117.543L100.227 48.7755ZM111.978 70.5821C113.227 79.001 111.486 87.5912 107.059 94.8603L28.2826 46.8852C21.4952 58.0303 18.8266 71.2008 20.7403 84.1089L111.978 70.5821ZM107.059 94.8603C102.632 102.129 95.7988 107.618 87.7459 110.373L57.8938 23.1017C45.547 27.325 35.0699 35.7402 28.2826 46.8852L107.059 94.8603ZM72.8199 20.6194H72.819V112.855H72.8199V20.6194ZM73.9567 18.5075C71.204 18.5167 68.4576 18.7679 65.7491 19.2579L82.1691 110.02C79.5617 110.492 76.9177 110.733 74.2678 110.742L73.9567 18.5075ZM65.8789 19.2346C51.8831 21.7253 39.3035 29.3056 30.5621 40.516L103.298 97.2326C98.0365 103.981 90.4642 108.544 82.0394 110.043L65.8789 19.2346ZM30.5621 40.516C21.8208 51.7264 17.5356 65.7743 18.5317 79.955L110.54 73.492C111.14 82.0282 108.56 90.4844 103.298 97.2326L30.5621 40.516ZM18.5317 79.955C19.5278 94.1358 25.7347 107.447 35.9575 117.325L100.051 50.9969C106.204 56.9433 109.941 64.9559 110.54 73.492L18.5317 79.955ZM35.9575 117.325C46.1802 127.203 59.696 132.951 73.9025 133.46L77.2095 41.2842C85.7612 41.591 93.8971 45.0506 100.051 50.9969L35.9575 117.325ZM73.8699 133.459C75.0016 133.5 75.9024 133.493 76.1941 133.49C76.2938 133.489 76.5208 133.486 76.409 133.488C76.3913 133.488 76.2173 133.49 75.9847 133.49V41.2546C75.6813 41.2546 75.4362 41.2573 75.3472 41.2584C75.3152 41.2587 75.2474 41.2596 75.2684 41.2593C75.2684 41.2593 75.2689 41.2593 75.2697 41.2593C75.2705 41.2593 75.2718 41.2593 75.2734 41.2593C75.2767 41.2592 75.2818 41.2592 75.2884 41.2591C75.3013 41.2589 75.3219 41.2587 75.3479 41.2585C75.4425 41.2576 75.6756 41.2558 75.9802 41.2579C76.2899 41.26 76.7227 41.2664 77.2421 41.2854L73.8699 133.459ZM75.9547 133.49C85.1962 133.496 94.3034 131.276 102.506 127.019L60.0165 45.1534C64.9589 42.5883 70.4464 41.251 76.0148 41.2546L75.9547 133.49ZM102.506 127.019C110.709 122.762 117.765 116.592 123.08 109.031L47.62 55.9918C50.8221 51.4362 55.0741 47.7186 60.0165 45.1534L102.506 127.019ZM123.828 107.934C128.378 101.047 131.035 93.0822 131.529 84.8419L39.46 79.3129C39.9362 71.3824 42.4927 63.7175 46.8721 57.0891L123.828 107.934ZM131.529 84.8419C132.024 76.6013 130.34 68.3762 126.646 60.994L44.1592 102.264C40.6047 95.1595 38.9837 87.2437 39.46 79.3129L131.529 84.8419ZM126.646 60.994C122.953 53.6115 117.38 47.3319 110.489 42.7872L59.7095 119.786C53.0772 115.412 47.714 109.369 44.1592 102.264L126.646 60.994ZM110.489 42.7872C103.597 38.2425 95.6304 35.593 87.3899 35.1052L81.9396 127.179C74.0089 126.71 66.3418 124.16 59.7095 119.786L110.489 42.7872ZM88.6967 35.2012C93.9924 35.6659 99.1102 37.3422 103.655 40.1003L55.7998 118.95C63.3445 123.529 71.8411 126.312 80.6328 127.083L88.6967 35.2012ZM103.655 40.1003C108.199 42.8584 112.049 46.6246 114.906 51.1077L37.1215 100.676C41.8644 108.118 48.2551 114.371 55.7998 118.95L103.655 40.1003ZM114.906 51.1077C117.762 55.5908 119.55 60.6707 120.131 65.9549L28.4469 76.0266C29.4106 84.7993 32.3786 93.233 37.1215 100.676L114.906 51.1077ZM120.131 65.9549C120.711 71.2392 120.069 76.5861 118.253 81.5825L31.5637 50.0822C28.5496 58.3771 27.4832 67.2539 28.4469 76.0266L120.131 65.9549ZM117.929 82.4469C120.628 75.46 121.617 67.9294 120.816 60.4826L29.1101 70.3521C28.339 63.1867 29.2912 55.9407 31.8876 49.2178L117.929 82.4469ZM120.816 60.4826C120.014 53.0357 117.445 45.8882 113.322 39.6355L36.3209 90.4115C32.3536 84.395 29.8813 77.5176 29.1101 70.3521L120.816 60.4826ZM113.322 39.6355C109.199 33.3828 103.641 28.2058 97.1119 24.5359L51.9184 104.94C45.6359 101.409 40.2883 96.4279 36.3209 90.4115L113.322 39.6355ZM97.1119 24.5359C90.5827 20.866 83.2711 18.8095 75.7862 18.5376L72.4382 110.712C65.2362 110.451 58.2009 108.472 51.9184 104.94L97.1119 24.5359Z" fill="white" mask="url(#path-2-inside-1)"/>
</svg>
